<?xml version="1.0" encoding="UTF-8"?>
<svg id="Layer_2" data-name="Layer 2" xmlns="http://www.w3.org/2000/svg" xmlns:xlink="http://www.w3.org/1999/xlink" viewBox="0 0 465 255.75">
  <defs>
    <style>
      .cls-1, .cls-2 {
        fill: none;
      }

      .cls-3 {
        font-size: 40.75px;
      }

      .cls-3, .cls-4, .cls-5 {
        fill: #673265;
      }

      .cls-3, .cls-5 {
        font-family: Neutraface2Display-Bold, 'Neutraface2Display Bold';
        font-weight: 700;
      }

      .cls-6 {
        clip-path: url(#clippath-1);
      }

      .cls-7 {
        letter-spacing: 0em;
      }

      .cls-2 {
        stroke: #fff;
        stroke-miterlimit: 10;
        stroke-width: .66px;
      }

      .cls-8 {
        fill: #fff;
      }

      .cls-5 {
        font-size: 53.63px;
      }

      .cls-9 {
        letter-spacing: -.01em;
      }

      .cls-10 {
        letter-spacing: 0em;
      }

      .cls-11 {
        letter-spacing: 0em;
      }

      .cls-12 {
        letter-spacing: 0em;
      }

      .cls-13 {
        letter-spacing: 0em;
      }

      .cls-14 {
        clip-path: url(#clippath);
      }
    </style>
    <clipPath id="clippath">
      <rect class="cls-1" width="465" height="255.75"/>
    </clipPath>
    <clipPath id="clippath-1">
      <rect class="cls-1" width="465" height="255.75"/>
    </clipPath>
  </defs>
  <g id="pretty_muchhh_the_whole_home_page" data-name="pretty muchhh the whole home page">
    <g class="cls-14">
      <rect class="cls-4" x="12.23" y="19.4" width="134.33" height="219.6"/>
      <line class="cls-2" x1="12.23" y1="103.58" x2="146.37" y2="103.58"/>
      <line class="cls-2" x1="96.23" y1="19.22" x2="96.23" y2="103.58"/>
      <line class="cls-2" x1="146.37" y1="69.18" x2="96.23" y2="69.18"/>
      <line class="cls-2" x1="113.43" y1="69.18" x2="113.43" y2="103.58"/>
      <line class="cls-2" x1="113.43" y1="86.38" x2="96.23" y2="86.38"/>
      <g class="cls-6">
        <path class="cls-8" d="M45.9,186.67s-.37-59.29,59.66-145.67c0,0,16.84-20.86,20.5-18.67,3.66,2.2-10.61,39.16-27.82,71.01,0,0-21.23,36.78-15.92,56.37,0,0,3.93,12.63,16.01,9.7,0,0,33.03-5.31,50.42-80.34,0,0,6.86-32.03-16.1-44.29-21.37-11.41-60.39,19.4-68.44,28.55,0,0-49.41,49.78-53,113.28,0,0-5.74,64.3,43.31,64.27,0,0,35.49,4.33,74.65-57.89,0,0-1.13-6.15-2.73-4-1.6,2.15-42.64,60.03-84.73,51.79,0,0-20.47-2.7-22.51-49.59,0,0,5.12-81.98,75.76-134.69,0,0,26.72-17.57,42.09-.73,15.37,16.84-10.43,102.12-44.47,105.36,0,0-14.18.23,1.65-34.72,15.2-33.56,40.63-76.13,39.89-95.89,0,0,0-11.35-13.91,0-13.91,11.35-72.65,73.57-83.45,156.29,0,0,2.2,10.61,9.15,9.88"/>
      </g>
      <text class="cls-5" transform="translate(175.83 57.74)"><tspan class="cls-10" x="0" y="0">CA</tspan><tspan x="62.96" y="0">B</tspan></text>
      <text class="cls-5" transform="translate(175.83 119.74)"><tspan class="cls-10" x="0" y="0">CA</tspan><tspan class="cls-13" x="62.96" y="0">LL</tspan><tspan class="cls-12" x="112.52" y="0">OWA</tspan><tspan x="226.21" y="0">Y</tspan></text>
      <text class="cls-5" transform="translate(175.83 181.74)"><tspan class="cls-12" x="0" y="0">SCHO</tspan><tspan class="cls-13" x="127.53" y="0">O</tspan><tspan x="163.95" y="0">L</tspan></text>
      <text class="cls-3" transform="translate(175.83 239.91)"><tspan class="cls-9" x="0" y="0">o</tspan><tspan class="cls-11" x="21.96" y="0">f t</tspan><tspan class="cls-9" x="54.89" y="0">h</tspan><tspan class="cls-11" x="77.1" y="0">e ART</tspan><tspan class="cls-7" x="171.43" y="0">S</tspan></text>
    </g>
  </g>
</svg>