<?xml version="1.0" encoding="UTF-8"?>
<svg id="Layer_2" data-name="Layer 2" xmlns="http://www.w3.org/2000/svg" viewBox="0 0 221.08 219.51">
  <defs>
    <style>
      .cls-1 {
        fill: #dcf1fc;
      }

      .cls-1, .cls-2, .cls-3, .cls-4, .cls-5 {
        stroke: #000;
        stroke-miterlimit: 10;
        stroke-width: 8px;
      }

      .cls-2 {
        fill: #41a2d1;
      }

      .cls-3 {
        fill: #94adbc;
      }

      .cls-4 {
        fill: #61b4e5;
      }

      .cls-6 {
        opacity: .33;
      }

      .cls-5 {
        fill: #acd4f0;
      }
    </style>
  </defs>
  <g id="pretty_muchhh_the_whole_home_page" data-name="pretty muchhh the whole home page">
    <g class="cls-6">
      <path class="cls-5" d="M81.26,8.09s-14.82,33.23,9.35,66.46c0,0-19.69,56.29-61.37,103.65,0,0-49.18-53.18-10.22-122.28,0,0,19.67-37.88,62.24-47.83Z"/>
      <path class="cls-3" d="M81.26,8.09s-14.82,31.43,9.35,66.46c0,0,68.05,11.1,104.75,53.17,0,0,12.76-5.04,20.24-22.84,0,0,0-47.89-38.49-76.68,0,0-37.71-36.11-95.85-20.1Z"/>
      <path class="cls-2" d="M29.23,178.2s40.78-46.47,61.37-103.65c0,0,66.92,3.25,104.75,53.17,0,0-37.54,50.06-51.14,82.01,0,0-63.91,25.79-114.99-31.52Z"/>
      <path class="cls-5" d="M195.36,127.72s-39.6,53.02-51.14,82.01c0,0,36.25-10.26,57.56-47.71,0,0,16.5-26.81,13.81-57.14,0,0-4.56,14.35-20.24,22.84Z"/>
      <path class="cls-3" d="M130.64,83.03s-45.29,88.2-75.07,117.46c0,0,21.39,14.38,46.28,14.76,0,0,31.84-48.39,68.24-112.12,0,0-13.23-11.88-39.45-20.1Z"/>
      <path class="cls-4" d="M45.07,25.8s-19.14,41.44,25.31,92.62c0,0-14.24,26.44-24.83,38.88,0,0-36.1-25.34-35.25-82.75,0,0,8.04-28.01,34.78-48.75Z"/>
      <path class="cls-2" d="M79.5,52.17s94.14-13.53,129.22,64.52c0,0,6.88-6.93,6.88-11.81,0,0,.04-7.39-2.8-20.37,0,0-20.14-75.87-134.73-65.8,0,0-3.85,18.07,1.43,33.45Z"/>
      <path class="cls-4" d="M171.34,161.98s22.1.19,40.78-24.69c0,0-5.59,21.52-18.94,37.54,0,0-15.56,24.41-42.54,21.32,0,0,10.16-18.89,20.7-34.18Z"/>
      <path class="cls-1" d="M163.59,114.47s20.33,14.08,12.31,32.23c-4.7,10.63-9.82,18.66-15.53,15.64,0,0-6.42-1.61-10.83-9.4-3.91-6.9-4.57-6.93-4.57-6.93l18.61-31.54Z"/>
      <path class="cls-1" d="M108.11,124.16s-7.24-4.06-10,1.44c-3.03,6.02,9.83,11.59,18.46,15.76,7.64,3.69,18.37,10.31,27.65,17.46,19.43,14.96,3.57,38.27,3.57,38.27,0,0-8.71,18.88-43.7,14.74,0,0,6.79-10.7,14.32-22.5,0,0,3.53,1.72,5.54-3.49,1.51-3.91-9.58-10.35-18.46-13.93,0,0-22.16-10.41-28.87-17.12-9.27-9.27-6.24-29.54.17-41.29,8.22-15.07,19.97-19.64,19.97-19.64,0,0,9.9-6.06,27.79.71l-16.43,29.59Z"/>
      <path class="cls-1" d="M59.46,196.43s-23.7-10.82-14.81-28.56c5.21-10.4,12.34-16.78,18.73-15.34,0,0,2.84-.09,7.87,8.29.85,1.41,3.47,4.7,8.92,8.52-7.32,11.49-20.71,27.08-20.71,27.08Z"/>
    </g>
  </g>
</svg>