<?xml version="1.0" encoding="UTF-8"?>
<svg id="Layer_2" data-name="Layer 2" xmlns="http://www.w3.org/2000/svg" viewBox="0 0 351.63 354.53">
  <defs>
    <style>
      .cls-1, .cls-2, .cls-3 {
        fill: none;
      }

      .cls-4, .cls-5 {
        fill: #fff;
      }

      .cls-4, .cls-2 {
        stroke-width: 3px;
      }

      .cls-4, .cls-2, .cls-3, .cls-6, .cls-7 {
        stroke-miterlimit: 10;
      }

      .cls-4, .cls-6, .cls-7 {
        stroke: #231f20;
      }

      .cls-8 {
        fill: #231f20;
      }

      .cls-9 {
        fill: #acd4f0;
      }

      .cls-5 {
        opacity: .15;
      }

      .cls-10 {
        fill: #41a2d1;
      }

      .cls-2, .cls-3 {
        stroke: #f16722;
      }

      .cls-11 {
        fill: #f9a11b;
      }

      .cls-3 {
        stroke-width: 4px;
      }

      .cls-12 {
        opacity: .67;
      }

      .cls-12, .cls-13 {
        fill: #d36a28;
      }

      .cls-13 {
        opacity: .79;
      }

      .cls-6, .cls-7 {
        stroke-width: 6px;
      }

      .cls-14 {
        fill: #94adbc;
      }

      .cls-15 {
        fill: #61b4e5;
      }

      .cls-7 {
        fill: #cccbcb;
      }

      .cls-16 {
        fill: #e6e7e8;
      }

      .cls-17 {
        fill: #dcf1fc;
      }

      .cls-18 {
        fill: #7b7b7b;
      }
    </style>
  </defs>
  <g id="pretty_muchhh_the_whole_home_page" data-name="pretty muchhh the whole home page">
    <g>
      <circle class="cls-8" cx="203.89" cy="206.79" r="147.74"/>
      <path class="cls-6" d="M58.92,180.9s-17.24-14.05-35.35-4.93c0,0-4.06-26.37,22.02-37.38,0,0-12.17-38.25-40.86-48.68,0,0,15.94-22.31,51.87-18.84,0,0-1.74-13.91,10.72-29.27,0,0,7.53,19.12,24.34,28.11,0,0,8.69-44.91-31.59-57.37,0,0,42.6-8.4,87.22,25.21,0,0-1.16-25.79,18.26-33.61,0,0,6.52,33.61,42.74,55.64L58.92,180.9Z"/>
      <path class="cls-11" d="M144.74,283.11s-48.5-39-58.11-85.86c0,0-27.09-34.69-58.67-28.32,0,0,2.54-18.74,23.3-26.61,0,0-6.37-42.17-38.18-54.06,0,0,29.3-22.09,49.85-6.61,0,0-4.01-16.77,3.51-29.81,0,0,9.88,22.76,28.74,26.23,0,0,12.33-47.29-17.44-61.74,0,0,59.61,7.01,76.11,37.65,0,0-4.2-35.64,8.23-42.17,0,0,6.02,25.16,32.76,43,0,0,63.35,37.45,69.88,67.22,0,0,39.6,30.06,36.21,69l-156.2,92.09Z"/>
      <path class="cls-12" d="M119.72,166.39s16.2,14.47,5.31,51.05c0,0,5.69-46.88,23-49.24,0,0-16.97,4.98-28.31-1.81Z"/>
      <path class="cls-12" d="M86.56,187.69s.52-.27,0,6.03c-2.02,24.33,46.13,77.5,46.13,77.5,0,0-27.51-34.98-28.77-47.74s1.3-23.7-17.37-35.79Z"/>
      <path class="cls-12" d="M169.59,99.63s15,24.54,35.75,33.94c0,0-28.33-21.87-40,5.92,0,0,7.58-21.83,4.24-39.86Z"/>
      <path class="cls-12" d="M264.73,122.02l2.13,22.58s13.35-.62,25.26,15.95c0,0-3.46-19.22-27.39-38.52Z"/>
      <path class="cls-12" d="M97.65,59.95s-.21,8.97-2.46,18.11c0,0,21.5,4.15,23.4,1.8,0,0-16.45-2.2-18.85-24.78l-2.08,4.86Z"/>
      <path class="cls-12" d="M48.78,78.21s10.51,1.91,26.27,42.68c0,0-12.71-34.87-12.11-39.25,0,0-5.1-4.28-12.32-5.15l-1.83,1.72Z"/>
      <path class="cls-12" d="M70.05,139.48s-9.2,8.13-28.29-27.4l5.21,14.56s3.59,10.38,4.17,14.91l18.91-2.07Z"/>
      <path class="cls-13" d="M142.95,281.78s-21.45-37.06-7.51-79.22c13.94-42.17,57.37-55.1,57.37-55.1,0,0,36.41-13.06,65.05-2.85,28.63,10.2,42.55,32.67,42.55,32.67l-157.46,104.5Z"/>
      <path class="cls-7" d="M203.83,61.73c-79.76,0-144.41,64.65-144.41,144.41s64.65,144.41,144.41,144.41,144.41-64.65,144.41-144.41S283.58,61.73,203.83,61.73ZM203.83,323.1c-64.6,0-116.96-52.37-116.96-116.96s52.37-116.96,116.96-116.96,116.96,52.37,116.96,116.96-52.37,116.96-116.96,116.96Z"/>
      <path class="cls-18" d="M141.94,308.26s33.18,51.9,97.22,35.5c0,0,38.96-9.46,57.58-33.58l-115.1,12.86s-18.84-1.74-39.7-14.78Z"/>
      <polygon class="cls-4" points="186.32 324.91 192.51 325.34 191.26 343.3 200.85 343.96 200.47 349.45 184.7 348.36 186.32 324.91"/>
      <polygon class="cls-4" points="164.78 318.31 162.77 326.9 168.52 328.33 164.8 343.95 171.19 345.54 174.95 329.93 180.63 331.34 182.68 322.76 164.78 318.31"/>
      <g>
        <path class="cls-1" d="M85.73,267.21c-32.57-64.87-6.21-143.77,58.87-176.23,65.08-32.46,144.24-6.19,176.81,58.68,32.57,64.87,6.21,143.77-58.87,176.23-65.08,32.46-144.24,6.19-176.81-58.68Z"/>
        <polygon class="cls-4" points="342.01 179.12 335.25 183.02 336.88 190.64 331.07 185.43 324.3 189.34 327.47 182.22 321.66 177.01 329.43 177.81 332.6 170.69 334.24 178.31 342.01 179.12"/>
        <polygon class="cls-4" points="333.56 264.15 325.78 263.43 322.69 270.58 320.97 262.99 313.19 262.27 319.91 258.29 318.19 250.69 324.06 255.83 330.78 251.85 327.69 259.01 333.56 264.15"/>
        <polygon class="cls-4" points="310.58 300.77 303.38 297.73 298.26 303.61 298.93 295.85 291.74 292.82 299.35 291.06 300.02 283.29 304.05 289.97 311.67 288.21 306.55 294.09 310.58 300.77"/>
        <polygon class="cls-4" points="277.51 328.69 271.58 323.62 264.91 327.67 267.92 320.48 261.99 315.41 269.78 316.04 272.78 308.85 274.59 316.43 282.38 317.05 275.71 321.11 277.51 328.69"/>
        <polygon class="cls-4" points="344.4 222.32 336.76 223.97 335.98 231.72 332.04 225 324.4 226.65 329.6 220.84 325.66 214.11 332.82 217.25 338.02 211.43 337.24 219.18 344.4 222.32"/>
        <polygon class="cls-4" points="237.61 345.36 233.48 338.74 225.89 340.62 230.93 334.66 226.79 328.05 234.04 330.97 239.07 325.01 238.51 332.78 245.75 335.71 238.17 337.59 237.61 345.36"/>
      </g>
      <circle class="cls-16" cx="229.96" cy="242.18" r="95.37"/>
      <path class="cls-9" d="M204.07,150.41s-13.38,29.99,8.44,59.99c0,0-17.78,50.81-55.4,93.56,0,0-44.39-48-9.22-110.37,0,0,17.75-34.19,56.18-43.17Z"/>
      <path class="cls-14" d="M204.07,150.41s-13.38,28.37,8.44,59.99c0,0,61.42,10.02,94.55,47.99,0,0,11.52-4.55,18.27-20.62,0,0,0-43.23-34.74-69.22,0,0-34.04-32.6-86.52-18.14Z"/>
      <path class="cls-10" d="M157.12,303.96s36.81-41.94,55.4-93.56c0,0,60.4,2.93,94.55,47.99,0,0-33.89,45.19-46.16,74.02,0,0-57.69,23.28-103.79-28.46Z"/>
      <path class="cls-9" d="M307.06,258.39s-35.74,47.86-46.16,74.02c0,0,32.72-9.26,51.96-43.06,0,0,14.89-24.2,12.47-51.58,0,0-4.12,12.96-18.27,20.62Z"/>
      <path class="cls-14" d="M248.64,218.05s-40.88,79.61-67.76,106.02c0,0,19.3,12.98,41.77,13.33,0,0,28.74-43.68,61.59-101.2,0,0-11.94-10.73-35.61-18.14Z"/>
      <path class="cls-15" d="M171.41,166.39s-17.28,37.4,22.84,83.6c0,0-12.85,23.86-22.42,35.1,0,0-32.59-22.88-31.82-74.69,0,0,7.26-25.28,31.39-44Z"/>
      <path class="cls-10" d="M202.49,190.19s84.97-12.21,116.64,58.24c0,0,6.21-6.25,6.21-10.66,0,0,.03-6.67-2.53-18.38,0,0-18.18-68.48-121.61-59.39,0,0-3.47,16.31,1.29,30.19Z"/>
      <path class="cls-15" d="M285.38,289.32s19.95.17,36.81-22.29c0,0-5.04,19.42-17.1,33.89,0,0-14.05,22.04-38.4,19.25,0,0,9.17-17.05,18.69-30.85Z"/>
      <path class="cls-17" d="M278.39,246.43s18.35,12.71,11.11,29.09c-4.24,9.6-8.86,16.84-14.02,14.12,0,0-5.79-1.45-9.77-8.48-3.53-6.23-4.12-6.25-4.12-6.25l16.8-28.47Z"/>
      <path class="cls-17" d="M228.32,255.18s-6.53-3.67-9.03,1.3c-2.73,5.44,8.87,10.46,16.66,14.22,6.9,3.33,16.58,9.3,24.96,15.76,17.54,13.5,3.22,34.54,3.22,34.54,0,0-7.86,17.04-39.44,13.31,0,0,6.13-9.66,12.93-20.31,0,0,3.18,1.55,5-3.15,1.37-3.53-8.64-9.34-16.67-12.57,0,0-20-9.39-26.06-15.45-8.37-8.37-5.63-26.66.15-37.27,7.42-13.6,18.03-17.73,18.03-17.73,0,0,8.93-5.47,25.08.65l-14.83,26.71Z"/>
      <path class="cls-17" d="M184.4,320.41s-21.39-9.76-13.37-25.77c4.7-9.38,11.13-15.15,16.91-13.84,0,0,2.56-.08,7.11,7.48.76,1.27,3.13,4.24,8.05,7.69-6.61,10.37-18.69,24.45-18.69,24.45Z"/>
      <path class="cls-2" d="M90.67,209.07s9.17,34.1,44.63,64.91c0,0,.73.72.53-.4-.16-.9-34.21-31.15-44.73-64.63,0,0-.68-1.12-.43.11Z"/>
      <path class="cls-2" d="M93.14,191.57s13,7.94,11.18,31.67c0,0,.04,2.22.67,0s1.02-21.37-12.32-31.14c0,0-2.32-2.22.47-.53Z"/>
      <path class="cls-3" d="M56.9,172.5s-11.66-6.45-28.93-3.57c0,0,4.41-30.51,41.56-28.51,0,0,2.37.4-.06.39,0,0-33.08-1.93-39.89,26.69,0,0,14.9-3.29,27.6,4.61,0,0,1.09,1.16-.29.38Z"/>
      <path class="cls-3" d="M50.49,135.48s-10.15-35.79-37.41-47.23c0,0,25.17-18.12,43.37-8.77,0,0,1.61,1.06-.26.66s-16.83-7.81-40.06,7.86c0,0,24.85,11.16,35.21,47.49,0,0-.01,1.94-.86,0Z"/>
      <path class="cls-3" d="M77.17,122.51s-25.09-47.11-10.72-70.67c0,0,16.18,32.49,52.54,28.56,0,0,1.62.71.05,1.11-1.57.4-34.03,3.19-52.43-27.09,0,0-14.28,18.8,10.97,67.79,0,0,.61,2.3-.4.3Z"/>
      <path class="cls-2" d="M104.41,157.45s11.9,14.78,43.62,10.75c0,0,2.35-.82-.23-.88-2.58-.05-24.76,5.46-42.93-10.51,0,0-2.2-1.71-.46.64Z"/>
      <path class="cls-2" d="M164.27,138.96s9.2-17.34,4.4-39.33c0,0-.74-1.6-.63.21s5.48,19.39-4.27,38.83c0,0-1.12,1.63.49.29Z"/>
      <path class="cls-3" d="M97.83,71.12s5.75-42.3-20.08-54.79c0,0,62.26,5.59,79.66,44.77,0,0,1.61,4.11-.98.74,0,0-9.65-33.67-72.57-43.26,0,0,20.05,13.37,14.99,52.54,0,0-.95,2.91-1.03,0Z"/>
      <path class="cls-3" d="M195.05,56.23s-22.08-11.61-32.96-44.43c0,0-17.27,12.03-5.65,50.03,0,0,2.4,3.82.98-.74,0,0-12.88-30.52,4.17-46.88,0,0,6.43,24.29,33.4,42.34,0,0,3.18,1.65.08-.32Z"/>
      <path class="cls-2" d="M175.88,106.81s9.14,17.38,30,25.81c0,0,1.73.29.18-.64s-19.1-6.41-29.66-25.42c0,0-.72-1.85-.51.25Z"/>
      <path class="cls-2" d="M266.88,144.25s.78-23.59-11.6-38.26c0,0-1.81-1.58-.5.44.99,1.52,10.38,11.3,11.54,37.75,0,0,.13,1.55.57.07Z"/>
      <path class="cls-2" d="M272.06,131.42s15.05,13,23.76,36.26c0,0,1.81,2.71,1.05,0-.68-2.44-6.52-19.9-24.29-36.95,0,0-4.56-3.66-.51.69Z"/>
      <path class="cls-2" d="M125.03,217.44s7.49-18.15.6-39.57c0,0-.89-1.52-.6.27s7.31,18.78-.52,39.06c0,0-.96,1.73.52.24Z"/>
      <path class="cls-5" d="M153.7,299.72s-37.54-44.17-8.1-102.06c29.44-57.88,92.17-50.95,92.17-50.95,0,0,38.83.76,67.89,36.53,0,0-14.36-22.66-68.2-28.31-21.42-2.25-51.14,7.83-70.33,26.66-21.95,21.55-40.76,60.58-13.43,118.12Z"/>
      <g>
        <circle class="cls-1" cx="203.56" cy="207.17" r="131.34"/>
        <polygon class="cls-4" points="64.37 184.25 72.07 183.07 73.33 175.38 76.83 182.34 84.53 181.16 79 186.64 82.5 193.6 75.58 190.03 70.04 195.51 71.3 187.82 64.37 184.25"/>
        <polygon class="cls-4" points="103.18 108.09 110.14 111.58 115.61 106.04 114.44 113.74 121.41 117.23 113.72 118.5 112.55 126.2 108.97 119.29 101.29 120.56 106.76 115.01 103.18 108.09"/>
        <polygon class="cls-4" points="137.85 82.34 143.44 87.77 150.33 84.14 146.89 91.13 152.47 96.56 144.76 95.45 141.32 102.44 140 94.76 132.29 93.65 139.18 90.02 137.85 82.34"/>
        <polygon class="cls-4" points="178.78 68.3 182.44 75.17 190.11 73.81 184.7 79.42 188.37 86.3 181.36 82.89 175.96 88.5 177.03 80.78 170.03 77.37 177.7 76.01 178.78 68.3"/>
        <polygon class="cls-4" points="77.86 143.14 85.55 144.36 89.09 137.42 90.31 145.12 98 146.34 91.06 149.88 92.27 157.57 86.77 152.06 79.82 155.59 83.36 148.65 77.86 143.14"/>
        <polygon class="cls-4" points="222.01 67.32 223.44 74.98 231.16 75.99 224.32 79.72 225.74 87.37 220.09 82.02 213.25 85.74 216.59 78.71 210.94 73.35 218.66 74.36 222.01 67.32"/>
      </g>
      <path class="cls-4" d="M281.15,85.73l-2.71,5.26s-13.15-8.33-14.82-5.73c-1.92,2.99,9.06,6.54,11.67,10.55,2.98,4.59-1.7,10.58-7.95,8.89-7.41-2-13.67-6.95-18.27-10.62l3.42-5.04s13.83,12.63,15.71,8.68c1.07-2.25-5.87-6.25-8.09-7.78-1.36-.94-2.52-2.06-3.29-3.3-1-1.63-1.59-3.79.09-5.94,2.84-3.64,7.73-3.17,11-1.91,5.82,2.24,13.25,6.92,13.25,6.92Z"/>
      <path class="cls-4" d="M306.65,106.47l-7.56-7.27-24.73,11.5,5.92,5.7,7.3-3.9,6.14,5.9-3.86,7.21,5.22,5.02,11.56-24.16ZM291.82,109.97l5.27-2.64,1.49,1.43-2.54,5.27-4.22-4.06Z"/>
      <polygon class="cls-4" points="298.26 134.48 322.69 125.53 325.62 130.35 320.15 137.49 329.16 136.16 332.17 141.1 313.03 158.75 309.35 152.7 319.34 143.83 311.37 145.8 308.66 141.35 314.23 135.42 301.72 140.16 298.26 134.48"/>
      <path class="cls-4" d="M77.21,226.14l.86,6.91s9.62-1.2,8.17-12.83c0,0-.88-9.37-11.01-8.1-10.72,1.34-14.54,2.52-13.34,12.19,1.21,9.68,6.52,10.07,8.26,9.97l5.64-.7-1.25-10.02-5.58.75.4,3.17s-2.2.39-2.66-3.94c-.29-2.83-.26-2.54.53-3.69,1.12-1.63,9.14-2.19,9.14-2.19,0,0,4.01-.68,4.67,3.69s-3.85,4.81-3.85,4.81Z"/>
      <path class="cls-4" d="M87.02,233.81l2,5.94s-15.39,3.4-13.83,7.7c1.54,4.23,15.67-2.22,15.67-2.22l1.92,5.71-21.02,7.5-1.26-3.73,3.07-1.12s-3.61-.48-4.77-3.91-1.1-5.91,2.46-9.05,15.74-6.82,15.74-6.82Z"/>
      <polygon class="cls-4" points="94.78 252.58 86.97 256.69 89.66 261.98 75.42 269.4 78.4 275.27 92.66 267.89 95.31 273.1 103.14 269.03 94.78 252.58"/>
      <polygon class="cls-4" points="105.67 272.92 98.79 278.34 104.17 285.17 92.37 283.4 86.27 288.21 95.64 300.1 102.29 294.85 97.56 288.95 108.16 290.23 115.04 284.8 105.67 272.92"/>
      <polygon class="cls-4" points="99.31 305.46 119.29 289.03 122.83 292.13 119.36 300.23 127.1 295.87 130.74 299.04 117.16 321.07 112.71 317.18 119.87 305.97 113.16 310.52 109.89 307.66 113.69 300.57 103.49 309.11 99.31 305.46"/>
      <rect class="cls-4" x="120.6" y="312.56" width="25.17" height="7.3" transform="translate(-205.15 259.14) rotate(-57.59)"/>
      <path class="cls-4" d="M150.91,328.16s5.75.09,7.88-4.7c3.05-6.87-3.69-9.57-3.69-9.57l-7.01-3.3-10.32,21.92,5.35,2.52,2.07-4.37.12,5.4,6.56,3.09-.95-10.99ZM149.23,322.11l2.41-5.13c1.21.57,3.03,2.18,2.11,4.03-1.17,2.36-4.52,1.1-4.52,1.1Z"/>
    </g>
  </g>
</svg>